<svg xmlns="http://www.w3.org/2000/svg" viewBox="0 0 24 24"><path d="M15.2 2.8c2.2 1.1 3.7 3.3 3.8 5.9v.4c0 .6-.1 1.2-.2 1.9-.4 1.3-.9 2.5-1.4 3.5-.7 1.5-1.5 2.7-2.5 4.3 0 .1-.1.1-.1.2l-.4.6c-.2.3-.4.7-.7 1l-.4.6c-.1.2-.5.8-1.3.8-.7 0-1.2-.6-1.3-.8l-.4-.6c-.2-.3-.5-.7-.7-1l-.3-.6c0-.1-.1-.1-.1-.2-1-1.6-1.7-2.8-2.5-4.3-.5-1.1-1-2.2-1.4-3.5-.2-.7-.3-1.3-.3-1.9v-.4c.1-2.6 1.6-4.8 3.8-5.9.9-.5 2.1-.8 3.2-.8s2.3.3 3.2.8zm1.6 7.6c.2-.4.2-.9.2-1.3v-.2c-.1-2.3-1.8-4.3-4-4.8-.3-.1-.6-.1-1-.1s-.7 0-1 .1c-2.2.5-3.9 2.4-4 4.8v.2c0 .4 0 .9.2 1.3.3 1.1.8 2.2 1.3 3.2.3.7.7 1.3 1.1 2 .4.7.9 1.5 1.4 2.4l.4.6c.2.3.4.7.6 1 .2-.3.4-.7.6-1l.4-.6c.6-.9 1-1.6 1.4-2.4.4-.6.7-1.3 1.1-2 .5-1 1-2 1.3-3.2zM15 9c0 1.7-1.3 3-3 3s-3-1.3-3-3 1.3-3 3-3 3 1.3 3 3z" fill-rule="evenodd" clip-rule="evenodd" fill="#0078b3"/></svg>