<svg width="24" height="48" viewBox="0 0 24 48" fill="none" xmlns="http://www.w3.org/2000/svg">
<path fill-rule="evenodd" clip-rule="evenodd" d="M17.6569 12.75C18.0711 12.75 18.4069 12.4142 18.4069 12C18.4069 11.5858 18.0711 11.25 17.6569 11.25L12.75 11.25L12.75 6.34315C12.75 5.92893 12.4142 5.59315 12 5.59315C11.5858 5.59315 11.25 5.92893 11.25 6.34315L11.25 11.25L6.34315 11.25C5.92893 11.25 5.59315 11.5858 5.59315 12C5.59315 12.4142 5.92893 12.75 6.34315 12.75L11.25 12.75L11.25 17.6569C11.25 18.0711 11.5858 18.4069 12 18.4069C12.4142 18.4069 12.75 18.0711 12.75 17.6569V12.75L17.6569 12.75Z" fill="#0078B3"/>
<path fill-rule="evenodd" clip-rule="evenodd" d="M18.4069 36C18.4069 36.4142 18.0711 36.75 17.6569 36.75L6.34315 36.75C5.92893 36.75 5.59315 36.4142 5.59315 36C5.59315 35.5858 5.92893 35.25 6.34315 35.25L17.6569 35.25C18.0711 35.25 18.4069 35.5858 18.4069 36Z" fill="#0078B3"/>
</svg>
