<svg width="24" height="24" viewBox="0 0 24 24" fill="none" xmlns="http://www.w3.org/2000/svg">
<path fill-rule="evenodd" clip-rule="evenodd" d="M6 6C6 5.44772 5.55228 5 5 5C4.44772 5 4 5.44772 4 6V18C4 18.5523 4.44772 19 5 19C5.55229 19 6 18.5523 6 18L6 6ZM16.7071 7.29289C16.3166 6.90237 15.6834 6.90237 15.2929 7.29289C14.9024 7.68342 14.9024 8.31658 15.2929 8.70711L17.5858 11H8C7.44772 11 7 11.4477 7 12C7 12.5523 7.44772 13 8 13H17.5858L15.2929 15.2929C14.9024 15.6834 14.9024 16.3166 15.2929 16.7071C15.6834 17.0976 16.3166 17.0976 16.7071 16.7071L20.7071 12.7071C21.0976 12.3166 21.0976 11.6834 20.7071 11.2929L16.7071 7.29289Z" fill="#003B71"/>
</svg>
