<svg width="24" height="24" viewBox="0 0 24 24" fill="none" xmlns="http://www.w3.org/2000/svg">
<g clip-path="url(#clip0_5653_88707)">
<circle r="3" transform="matrix(1 0 0 -1 12 9)" fill="#F7F7F7"/>
<path fill-rule="evenodd" clip-rule="evenodd" d="M18.615 16.5004C17.175 18.613 14.7495 20 12 20C9.25051 20 6.82498 18.613 5.38496 16.5004C7.14786 14.9443 9.46366 14 12 14C14.5363 14 16.8521 14.9443 18.615 16.5004ZM3.99927 18C2.74389 19.6713 2 21.7488 2 24V31.1818C2 31.6337 2.36631 32 2.81818 32H21.1818C21.6337 32 22 31.6337 22 31.1818V24C22 21.7488 21.2561 19.6713 20.0007 18C18.1763 20.4289 15.2716 22 12 22C8.72836 22 5.82368 20.4289 3.99927 18Z" fill="#F7F7F7"/>
<circle cx="12" cy="12" r="11" stroke="#F7F7F7" stroke-width="2"/>
</g>
<defs>
<clipPath id="clip0_5653_88707">
<path d="M0 12C0 5.37258 5.37258 0 12 0C18.6274 0 24 5.37258 24 12C24 18.6274 18.6274 24 12 24C5.37258 24 0 18.6274 0 12Z" fill="white"/>
</clipPath>
</defs>
</svg>
